<?xml version="1.0" encoding="utf-8"?>
<!-- Generator: Adobe Illustrator 19.0.0, SVG Export Plug-In . SVG Version: 6.00 Build 0)  -->
<svg version="1.1" id="Layer_1" xmlns="http://www.w3.org/2000/svg" xmlns:xlink="http://www.w3.org/1999/xlink" x="0px" y="0px"
	 viewBox="0 0 256 256" style="enable-background:new 0 0 256 256;" xml:space="preserve">
<style type="text/css">
	.st0{fill:url(#XMLID_3_);}
	.st1{fill:#FFFFFF;}
</style>
<linearGradient id="XMLID_3_" gradientUnits="userSpaceOnUse" x1="221.4671" y1="-21.5786" x2="34.5329" y2="277.5786">
	<stop  offset="0" style="stop-color:#1066B1"/>
	<stop  offset="1" style="stop-color:#7C3B97"/>
</linearGradient>
<rect id="XMLID_2_" class="st0" width="256" height="256"/>
<g id="XMLID_63_">
	<path id="XMLID_64_" class="st1" d="M161.3,72.4c30.7,0,55.6,24.8,55.6,55.6c0,30.7-24.8,55.6-55.6,55.6H94.7
		c-30.7,0-55.6-24.8-55.6-55.6c0-30.7,24.8-55.6,55.6-55.6H161.3 M161.3,61.3H94.7C57.8,61.3,28,91.2,28,128s29.8,66.7,66.7,66.7
		h66.7c36.8,0,66.7-29.8,66.7-66.7S198.2,61.3,161.3,61.3z M161.3,166.9c21.5,0,38.9-17.4,38.9-38.9s-17.4-38.9-38.9-38.9
		s-38.9,17.4-38.9,38.9c0,9.9,3.7,18.9,9.7,25.7C139.3,161.8,149.7,166.9,161.3,166.9z M136.9,119.6h4l5.9,16.8H143l-1.1-3.4h-6.2
		l-1.1,3.4h-3.7L136.9,119.6z M136.6,130h4.3l-2.1-6.6L136.6,130z M161.8,134.9c-1.3,1.3-3.1,2-5.5,2c-2.4,0-4.2-0.7-5.5-2
		c-1.7-1.6-2.5-3.9-2.5-6.9c0-3.1,0.8-5.4,2.5-6.9c1.3-1.3,3.1-2,5.5-2c2.4,0,4.2,0.7,5.5,2c1.7,1.5,2.5,3.8,2.5,6.9
		C164.3,131,163.5,133.3,161.8,134.9z M159.6,132.3c0.8-1,1.2-2.5,1.2-4.4c0-1.9-0.4-3.3-1.2-4.4c-0.8-1-1.9-1.5-3.3-1.5
		c-1.4,0-2.5,0.5-3.3,1.5c-0.8,1-1.2,2.5-1.2,4.4c0,1.9,0.4,3.3,1.2,4.4c0.8,1,1.9,1.5,3.3,1.5C157.7,133.9,158.8,133.4,159.6,132.3
		z M167.5,121.4c1-1.1,2.3-1.6,4-1.6c2.5,0,4.2,1.1,5.2,3.3c0.5,1.3,0.8,2.9,0.8,5c0,2-0.3,3.7-0.8,5c-1,2.5-2.8,3.8-5.3,3.8
		c-1.2,0-2.3-0.4-3.3-1.1c-1-0.7-1.6-1.8-1.7-3.2h3.2c0.1,0.5,0.3,0.9,0.6,1.2c0.3,0.3,0.8,0.5,1.3,0.5c1.1,0,1.8-0.6,2.3-1.8
		c0.2-0.7,0.4-1.6,0.4-2.9c-0.3,0.4-0.6,0.7-0.9,0.9c-0.6,0.4-1.4,0.5-2.2,0.5c-1.3,0-2.5-0.5-3.5-1.4c-1-0.9-1.5-2.2-1.5-3.9
		C165.9,123.9,166.4,122.5,167.5,121.4z M172.9,127.9c0.7-0.5,1.1-1.3,1.1-2.4c0-0.9-0.2-1.7-0.7-2.2c-0.4-0.5-1-0.8-1.8-0.8
		c-0.6,0-1,0.2-1.4,0.5c-0.6,0.5-0.9,1.3-0.9,2.5c0,1,0.2,1.7,0.6,2.2c0.4,0.5,1,0.7,1.8,0.7C172.1,128.3,172.5,128.2,172.9,127.9z
		 M189,122c0.8,1.5,1.3,3.6,1.3,6.3c0,2.7-0.4,4.8-1.3,6.3c-0.8,1.5-2.3,2.2-4.4,2.2c-2.1,0-3.6-0.7-4.4-2.2
		c-0.8-1.5-1.3-3.6-1.3-6.3c0-2.7,0.4-4.8,1.3-6.3c0.8-1.5,2.3-2.2,4.4-2.2C186.7,119.8,188.2,120.5,189,122z M182.7,132.6
		c0.3,1,0.9,1.5,1.9,1.5c1,0,1.6-0.5,1.9-1.5c0.3-1,0.4-2.5,0.4-4.3c0-2-0.1-3.5-0.4-4.4c-0.3-1-0.9-1.4-1.9-1.4
		c-1,0-1.6,0.5-1.9,1.4c-0.3,1-0.5,2.4-0.5,4.4C182.2,130.2,182.4,131.6,182.7,132.6z"/>
</g>
</svg>
